<svg xmlns="http://www.w3.org/2000/svg" viewBox="0 0 187.63 122.67"><defs><style>.cls-1{fill:none;}</style></defs><title>Asset 1</title><g id="Layer_2" data-name="Layer 2"><g id="Layer_1-2" data-name="Layer 1"><path class="cls-1" d="M22.5,121C27.23,103.44,38.29,92,56.72,86.4a51.88,51.88,0,0,0-45.85,36.27c-9.73-16.6-12.6-43.07,3.39-64.26L0,73.66c2-18,9.45-32.84,23.24-44.94L10.41,33.3l-.68-.51c4-3.76,7.57-8,11.95-11.2C47.64,2.72,76.21-4.8,107.9,3.12c17.4,4.35,33.95,17.31,39.9,30.52-.14.1-.32.3-.4.27-5.2-2-10.4-4-16.16-6.18l4.59,11-5.48-3.38c1,7.17.1,8.08-7.36,7.66-2.64-.15-5.27-.59-8.74-1,2,2.32,3.67,4,5.05,5.92,3.07,4.26,2.14,7.06-2.94,8.53-2.64.76-5.43,1-8.15,2.23L117,60l0,1.47L94.19,63.68c1.33.37,2.57.82,3.85,1s2.62.23,3.81.32L75.57,73.71,76,75.06l14.61-1.55.17.88L79.49,80l.23.47L98.61,77.6c-19,5.07-34.78,15.4-49.27,28.35l4.46-7.81C41.18,103.87,29.14,108.72,22.5,121ZM81.35,37.31c-.86,8.51,1.29,12.48,7.34,14.45,5.83,1.9,11.87-.21,14.73-5.18,1.18-2.06,2.32-4.14,2.9-5.18-3.68-.67-7.77-.86-11.45-2.19-7.94-2.87-15.77-5.6-25.36-3.68Zm14.83.15c-9.7-8-22.91-9.81-31.56-4.13A46.39,46.39,0,0,1,96.18,37.46Z"/><path class="cls-1" d="M172.27,88c-10-8.72-22.16-12.7-34.79-14.85-12.23-2.07-24.7-2.77-36.49-4,2.82-.84,6.48-1.85,10.08-3,11.54-3.74,14.08-8.72,10.29-19.32,4-.57,8.7-.15,12.12-2s5.71-6,9.25-10c17,3.76,31.91,12.5,39.9,30.07,6.79,14.93,7.17,30.07-2,44.72,1.69-8.56,1-16.11-7.57-20.75Z"/><path class="cls-1" d="M117.1,119.94l3.53-8.9-23.49,9.71-.46-1.25,10.65-13.11c-8.2,1.36-16.15,2.54-24,4-7.71,1.45-15.37,3.21-22.94,4.82,4.2-7.89,12-13.48,20.09-18.88-10,1.45-18.19,6.43-26,12.92C59.53,93.77,94.9,76.66,116,79.41l-10.17,3.84.27.88L115.9,83,99.62,92.52l.45.66,22.29-6.39-2.16,7.37L133.54,85l1.65,1.38c-9.25,5-8.93,13.09-8.24,21.52C127.4,113.51,124.09,117.27,117.1,119.94Z"/><path class="cls-1" d="M172.27,88l.78.81-6.3-.81q-16.54-2.13-33.09-4.24c-2-.25-3.92-.36-7.23-.66l5.2-2.3.18-1.48L96.77,73l.11-1.51c11,.64,22,.8,32.86,2a96.37,96.37,0,0,1,41.1,14.33C171.21,88.09,171.79,88,172.27,88Z"/><path class="cls-1" d="M81.35,37.31,69.51,35.53c9.59-1.93,17.42.81,25.36,3.68,3.68,1.33,7.77,1.52,11.45,2.19-.58,1-1.71,3.13-2.9,5.18-2.86,5-8.9,7.09-14.73,5.18C82.64,49.79,80.48,45.83,81.35,37.31Z"/><path class="cls-1" d="M96.18,37.46a46.39,46.39,0,0,0-31.56-4.13C73.27,27.65,86.48,29.49,96.18,37.46Z"/></g></g></svg>